<mxfile host="app.diagrams.net" modified="2022-09-08T16:59:19.943Z" agent="5.0 (Windows NT 10.0; Win64; x64) AppleWebKit/537.36 (KHTML, like Gecko) Chrome/104.0.0.0 Safari/537.36" etag="WnYO0vLWf6kbvya-H4Jj" version="20.2.7" type="github">
  <diagram id="9iU1oCxTGIGdsVArA7x9" name="Trang-1">
    <mxGraphModel dx="2036" dy="726" grid="1" gridSize="10" guides="1" tooltips="1" connect="1" arrows="1" fold="1" page="1" pageScale="1" pageWidth="827" pageHeight="1169" background="#B0E3E6" math="0" shadow="0">
      <root>
        <mxCell id="0" />
        <mxCell id="1" parent="0" />
        <mxCell id="hp0mDdn3gR790WJfESx1-4" value="&lt;span style=&quot;font-family: &amp;quot;Segoe UI&amp;quot;;&quot;&gt;Người dùng&lt;br&gt;User&lt;br&gt;&lt;/span&gt;" style="rounded=1;whiteSpace=wrap;html=1;fontSize=16;fontColor=#1A1A1A;strokeColor=#FFFFFF;fillColor=#F08E81;" vertex="1" parent="1">
          <mxGeometry x="-100" y="450" width="120" height="60" as="geometry" />
        </mxCell>
        <mxCell id="hp0mDdn3gR790WJfESx1-5" value="&lt;span style=&quot;font-family: &amp;quot;Segoe UI&amp;quot;;&quot;&gt;Thiết bị&lt;br&gt;Device&lt;/span&gt;" style="rounded=1;whiteSpace=wrap;html=1;fontSize=16;fontColor=#1A1A1A;strokeColor=#FFFFFF;fillColor=#F08E81;" vertex="1" parent="1">
          <mxGeometry x="200" y="300" width="120" height="60" as="geometry" />
        </mxCell>
        <mxCell id="hp0mDdn3gR790WJfESx1-7" value="1" style="text;html=1;align=center;verticalAlign=middle;resizable=0;points=[];autosize=1;strokeColor=none;fillColor=none;fontSize=16;fontColor=#1A1A1A;" vertex="1" parent="1">
          <mxGeometry x="-30" y="420" width="30" height="30" as="geometry" />
        </mxCell>
        <mxCell id="hp0mDdn3gR790WJfESx1-9" value="" style="endArrow=classic;html=1;rounded=0;fontColor=#1A1A1A;strokeColor=#182E3E;exitX=0.75;exitY=0;exitDx=0;exitDy=0;entryX=0;entryY=0.25;entryDx=0;entryDy=0;" edge="1" parent="1" source="hp0mDdn3gR790WJfESx1-4" target="hp0mDdn3gR790WJfESx1-5">
          <mxGeometry width="50" height="50" relative="1" as="geometry">
            <mxPoint x="410" y="340" as="sourcePoint" />
            <mxPoint x="520" y="290" as="targetPoint" />
            <Array as="points">
              <mxPoint x="-10" y="315" />
            </Array>
          </mxGeometry>
        </mxCell>
        <mxCell id="hp0mDdn3gR790WJfESx1-11" value="&lt;font style=&quot;font-size: 16px;&quot;&gt;có&lt;/font&gt;" style="text;html=1;align=center;verticalAlign=middle;resizable=0;points=[];autosize=1;strokeColor=none;fillColor=none;fontColor=#1A1A1A;" vertex="1" parent="1">
          <mxGeometry x="35" y="290" width="40" height="30" as="geometry" />
        </mxCell>
        <mxCell id="hp0mDdn3gR790WJfESx1-12" value="&lt;font style=&quot;font-size: 16px;&quot;&gt;n&lt;/font&gt;" style="text;html=1;align=center;verticalAlign=middle;resizable=0;points=[];autosize=1;strokeColor=none;fillColor=none;fontSize=13;fontFamily=Segoe UI;fontColor=#1A1A1A;" vertex="1" parent="1">
          <mxGeometry x="170" y="290" width="30" height="30" as="geometry" />
        </mxCell>
        <mxCell id="hp0mDdn3gR790WJfESx1-13" value="&lt;span style=&quot;font-family: &amp;quot;Segoe UI&amp;quot;;&quot;&gt;Địa chỉ&lt;br&gt;Address&lt;/span&gt;" style="rounded=1;whiteSpace=wrap;html=1;fontSize=16;fontColor=#1A1A1A;strokeColor=#FFFFFF;fillColor=#F08E81;" vertex="1" parent="1">
          <mxGeometry x="200" y="450" width="120" height="60" as="geometry" />
        </mxCell>
        <mxCell id="hp0mDdn3gR790WJfESx1-14" value="" style="endArrow=classic;html=1;rounded=0;fontFamily=Segoe UI;fontSource=https%3A%2F%2Ffonts.googleapis.com%2Fcss%3Ffamily%3DSegoe%2BUI;fontSize=16;fontColor=#1A1A1A;strokeColor=#182E3E;exitX=1;exitY=0.25;exitDx=0;exitDy=0;entryX=0;entryY=0.25;entryDx=0;entryDy=0;" edge="1" parent="1" source="hp0mDdn3gR790WJfESx1-4" target="hp0mDdn3gR790WJfESx1-13">
          <mxGeometry width="50" height="50" relative="1" as="geometry">
            <mxPoint x="70" y="460" as="sourcePoint" />
            <mxPoint x="120" y="410" as="targetPoint" />
          </mxGeometry>
        </mxCell>
        <mxCell id="hp0mDdn3gR790WJfESx1-15" value="" style="endArrow=classic;html=1;rounded=0;fontFamily=Segoe UI;fontSource=https%3A%2F%2Ffonts.googleapis.com%2Fcss%3Ffamily%3DSegoe%2BUI;fontSize=16;fontColor=#1A1A1A;strokeColor=#182E3E;exitX=-0.001;exitY=0.622;exitDx=0;exitDy=0;entryX=0.941;entryY=0.016;entryDx=0;entryDy=0;exitPerimeter=0;entryPerimeter=0;" edge="1" parent="1" source="hp0mDdn3gR790WJfESx1-5" target="hp0mDdn3gR790WJfESx1-4">
          <mxGeometry width="50" height="50" relative="1" as="geometry">
            <mxPoint x="30" y="475.0000000000001" as="sourcePoint" />
            <mxPoint x="210" y="475.0000000000001" as="targetPoint" />
            <Array as="points">
              <mxPoint x="13" y="338" />
            </Array>
          </mxGeometry>
        </mxCell>
        <mxCell id="hp0mDdn3gR790WJfESx1-16" value="1" style="text;html=1;align=center;verticalAlign=middle;resizable=0;points=[];autosize=1;strokeColor=none;fillColor=none;fontSize=16;fontFamily=Segoe UI;fontColor=#1A1A1A;" vertex="1" parent="1">
          <mxGeometry x="180" y="330" width="30" height="30" as="geometry" />
        </mxCell>
        <mxCell id="hp0mDdn3gR790WJfESx1-17" value="1" style="text;html=1;align=center;verticalAlign=middle;resizable=0;points=[];autosize=1;strokeColor=none;fillColor=none;fontSize=16;fontFamily=Segoe UI;fontColor=#1A1A1A;" vertex="1" parent="1">
          <mxGeometry x="5" y="425" width="30" height="30" as="geometry" />
        </mxCell>
        <mxCell id="hp0mDdn3gR790WJfESx1-18" value="thuộc về" style="text;html=1;align=center;verticalAlign=middle;resizable=0;points=[];autosize=1;strokeColor=none;fillColor=none;fontSize=16;fontFamily=Segoe UI;fontColor=#1A1A1A;" vertex="1" parent="1">
          <mxGeometry x="35" y="330" width="80" height="30" as="geometry" />
        </mxCell>
        <mxCell id="hp0mDdn3gR790WJfESx1-19" value="1" style="text;html=1;align=center;verticalAlign=middle;resizable=0;points=[];autosize=1;strokeColor=none;fillColor=none;fontSize=16;fontFamily=Segoe UI;fontColor=#1A1A1A;" vertex="1" parent="1">
          <mxGeometry x="15" y="440" width="30" height="30" as="geometry" />
        </mxCell>
        <mxCell id="hp0mDdn3gR790WJfESx1-20" value="n" style="text;html=1;align=center;verticalAlign=middle;resizable=0;points=[];autosize=1;strokeColor=none;fillColor=none;fontSize=16;fontFamily=Segoe UI;fontColor=#1A1A1A;" vertex="1" parent="1">
          <mxGeometry x="170" y="440" width="30" height="30" as="geometry" />
        </mxCell>
        <mxCell id="hp0mDdn3gR790WJfESx1-21" value="" style="endArrow=classic;html=1;rounded=0;fontFamily=Segoe UI;fontSource=https%3A%2F%2Ffonts.googleapis.com%2Fcss%3Ffamily%3DSegoe%2BUI;fontSize=16;fontColor=#1A1A1A;strokeColor=#182E3E;exitX=0;exitY=0.75;exitDx=0;exitDy=0;entryX=1;entryY=0.75;entryDx=0;entryDy=0;" edge="1" parent="1" source="hp0mDdn3gR790WJfESx1-13" target="hp0mDdn3gR790WJfESx1-4">
          <mxGeometry width="50" height="50" relative="1" as="geometry">
            <mxPoint x="210" y="475.0000000000001" as="sourcePoint" />
            <mxPoint x="30" y="475.0000000000001" as="targetPoint" />
          </mxGeometry>
        </mxCell>
        <mxCell id="hp0mDdn3gR790WJfESx1-22" value="có" style="text;html=1;align=center;verticalAlign=middle;resizable=0;points=[];autosize=1;strokeColor=none;fillColor=none;fontSize=16;fontFamily=Segoe UI;fontColor=#1A1A1A;" vertex="1" parent="1">
          <mxGeometry x="90" y="440" width="40" height="30" as="geometry" />
        </mxCell>
        <mxCell id="hp0mDdn3gR790WJfESx1-23" value="1" style="text;html=1;align=center;verticalAlign=middle;resizable=0;points=[];autosize=1;strokeColor=none;fillColor=none;fontSize=16;fontFamily=Segoe UI;fontColor=#1A1A1A;" vertex="1" parent="1">
          <mxGeometry x="170" y="490" width="30" height="30" as="geometry" />
        </mxCell>
        <mxCell id="hp0mDdn3gR790WJfESx1-24" value="1" style="text;html=1;align=center;verticalAlign=middle;resizable=0;points=[];autosize=1;strokeColor=none;fillColor=none;fontSize=16;fontFamily=Segoe UI;fontColor=#1A1A1A;" vertex="1" parent="1">
          <mxGeometry x="15" y="495" width="30" height="30" as="geometry" />
        </mxCell>
        <mxCell id="hp0mDdn3gR790WJfESx1-25" value="thuộc về" style="text;html=1;align=center;verticalAlign=middle;resizable=0;points=[];autosize=1;strokeColor=none;fillColor=none;fontSize=16;fontFamily=Segoe UI;fontColor=#1A1A1A;" vertex="1" parent="1">
          <mxGeometry x="60" y="490" width="80" height="30" as="geometry" />
        </mxCell>
        <mxCell id="hp0mDdn3gR790WJfESx1-26" value="&lt;font face=&quot;Segoe UI&quot;&gt;Đơn hàng&lt;br&gt;Order&lt;/font&gt;" style="rounded=1;whiteSpace=wrap;html=1;fontSize=16;fontColor=#1A1A1A;strokeColor=#FFFFFF;fillColor=#F08E81;" vertex="1" parent="1">
          <mxGeometry x="-390" y="450" width="120" height="60" as="geometry" />
        </mxCell>
        <mxCell id="hp0mDdn3gR790WJfESx1-27" value="" style="endArrow=classic;html=1;rounded=0;fontFamily=Segoe UI;fontSource=https%3A%2F%2Ffonts.googleapis.com%2Fcss%3Ffamily%3DSegoe%2BUI;fontSize=16;fontColor=#1A1A1A;strokeColor=#182E3E;exitX=1;exitY=0.25;exitDx=0;exitDy=0;entryX=0;entryY=0.25;entryDx=0;entryDy=0;" edge="1" parent="1" source="hp0mDdn3gR790WJfESx1-26" target="hp0mDdn3gR790WJfESx1-4">
          <mxGeometry width="50" height="50" relative="1" as="geometry">
            <mxPoint x="30" y="475.0000000000001" as="sourcePoint" />
            <mxPoint x="210" y="475.0000000000001" as="targetPoint" />
          </mxGeometry>
        </mxCell>
        <mxCell id="hp0mDdn3gR790WJfESx1-28" value="1" style="text;html=1;align=center;verticalAlign=middle;resizable=0;points=[];autosize=1;strokeColor=none;fillColor=none;fontSize=16;fontFamily=Segoe UI;fontColor=#1A1A1A;" vertex="1" parent="1">
          <mxGeometry x="-280" y="440" width="30" height="30" as="geometry" />
        </mxCell>
        <mxCell id="hp0mDdn3gR790WJfESx1-29" value="1" style="text;html=1;align=center;verticalAlign=middle;resizable=0;points=[];autosize=1;strokeColor=none;fillColor=none;fontSize=16;fontFamily=Segoe UI;fontColor=#1A1A1A;" vertex="1" parent="1">
          <mxGeometry x="-130" y="440" width="30" height="30" as="geometry" />
        </mxCell>
        <mxCell id="hp0mDdn3gR790WJfESx1-30" value="thuộc về" style="text;html=1;align=center;verticalAlign=middle;resizable=0;points=[];autosize=1;strokeColor=none;fillColor=none;fontSize=16;fontFamily=Segoe UI;fontColor=#1A1A1A;" vertex="1" parent="1">
          <mxGeometry x="-230" y="440" width="80" height="30" as="geometry" />
        </mxCell>
        <mxCell id="hp0mDdn3gR790WJfESx1-31" value="" style="endArrow=classic;html=1;rounded=0;fontFamily=Segoe UI;fontSource=https%3A%2F%2Ffonts.googleapis.com%2Fcss%3Ffamily%3DSegoe%2BUI;fontSize=16;fontColor=#1A1A1A;strokeColor=#182E3E;exitX=0;exitY=0.75;exitDx=0;exitDy=0;entryX=1;entryY=0.75;entryDx=0;entryDy=0;" edge="1" parent="1" source="hp0mDdn3gR790WJfESx1-4" target="hp0mDdn3gR790WJfESx1-26">
          <mxGeometry width="50" height="50" relative="1" as="geometry">
            <mxPoint x="-100" y="530" as="sourcePoint" />
            <mxPoint x="-270" y="500" as="targetPoint" />
          </mxGeometry>
        </mxCell>
        <mxCell id="hp0mDdn3gR790WJfESx1-32" value="n" style="text;html=1;align=center;verticalAlign=middle;resizable=0;points=[];autosize=1;strokeColor=none;fillColor=none;fontSize=16;fontFamily=Segoe UI;fontColor=#1A1A1A;" vertex="1" parent="1">
          <mxGeometry x="-270" y="470" width="30" height="30" as="geometry" />
        </mxCell>
        <mxCell id="hp0mDdn3gR790WJfESx1-33" value="1" style="text;html=1;align=center;verticalAlign=middle;resizable=0;points=[];autosize=1;strokeColor=none;fillColor=none;fontSize=16;fontFamily=Segoe UI;fontColor=#1A1A1A;" vertex="1" parent="1">
          <mxGeometry x="-120" y="470" width="30" height="30" as="geometry" />
        </mxCell>
        <mxCell id="hp0mDdn3gR790WJfESx1-34" value="có" style="text;html=1;align=center;verticalAlign=middle;resizable=0;points=[];autosize=1;strokeColor=none;fillColor=none;fontSize=16;fontFamily=Segoe UI;fontColor=#1A1A1A;" vertex="1" parent="1">
          <mxGeometry x="-210" y="470" width="40" height="30" as="geometry" />
        </mxCell>
        <mxCell id="hp0mDdn3gR790WJfESx1-35" value="&lt;font face=&quot;Segoe UI&quot;&gt;Sản phẩm&lt;br&gt;Product&lt;br&gt;&lt;/font&gt;" style="rounded=1;whiteSpace=wrap;html=1;fontSize=16;fontColor=#1A1A1A;strokeColor=#FFFFFF;fillColor=#F08E81;" vertex="1" parent="1">
          <mxGeometry x="-390" y="640" width="120" height="60" as="geometry" />
        </mxCell>
        <mxCell id="hp0mDdn3gR790WJfESx1-36" value="" style="endArrow=classic;html=1;rounded=0;fontFamily=Segoe UI;fontSource=https%3A%2F%2Ffonts.googleapis.com%2Fcss%3Ffamily%3DSegoe%2BUI;fontSize=16;fontColor=#1A1A1A;strokeColor=#182E3E;exitX=0.25;exitY=1;exitDx=0;exitDy=0;entryX=0.25;entryY=0;entryDx=0;entryDy=0;" edge="1" parent="1" source="hp0mDdn3gR790WJfESx1-26" target="hp0mDdn3gR790WJfESx1-35">
          <mxGeometry width="50" height="50" relative="1" as="geometry">
            <mxPoint x="-90" y="505.0000000000001" as="sourcePoint" />
            <mxPoint x="-260" y="505.0000000000001" as="targetPoint" />
          </mxGeometry>
        </mxCell>
        <mxCell id="hp0mDdn3gR790WJfESx1-37" value="1" style="text;html=1;align=center;verticalAlign=middle;resizable=0;points=[];autosize=1;strokeColor=none;fillColor=none;fontSize=16;fontFamily=Segoe UI;fontColor=#1A1A1A;" vertex="1" parent="1">
          <mxGeometry x="-385" y="510" width="30" height="30" as="geometry" />
        </mxCell>
        <mxCell id="hp0mDdn3gR790WJfESx1-38" value="n" style="text;html=1;align=center;verticalAlign=middle;resizable=0;points=[];autosize=1;strokeColor=none;fillColor=none;fontSize=16;fontFamily=Segoe UI;fontColor=#1A1A1A;" vertex="1" parent="1">
          <mxGeometry x="-385" y="605" width="30" height="30" as="geometry" />
        </mxCell>
        <mxCell id="hp0mDdn3gR790WJfESx1-39" value="có" style="text;html=1;align=center;verticalAlign=middle;resizable=0;points=[];autosize=1;strokeColor=none;fillColor=none;fontSize=16;fontFamily=Segoe UI;fontColor=#1A1A1A;" vertex="1" parent="1">
          <mxGeometry x="-395" y="554.5" width="40" height="30" as="geometry" />
        </mxCell>
        <mxCell id="hp0mDdn3gR790WJfESx1-41" value="" style="endArrow=classic;html=1;rounded=0;fontFamily=Segoe UI;fontSource=https%3A%2F%2Ffonts.googleapis.com%2Fcss%3Ffamily%3DSegoe%2BUI;fontSize=16;fontColor=#1A1A1A;strokeColor=#182E3E;exitX=0.724;exitY=-0.013;exitDx=0;exitDy=0;entryX=0.75;entryY=1;entryDx=0;entryDy=0;exitPerimeter=0;" edge="1" parent="1" source="hp0mDdn3gR790WJfESx1-35" target="hp0mDdn3gR790WJfESx1-26">
          <mxGeometry width="50" height="50" relative="1" as="geometry">
            <mxPoint x="-305" y="640" as="sourcePoint" />
            <mxPoint x="-305" y="510" as="targetPoint" />
          </mxGeometry>
        </mxCell>
        <mxCell id="hp0mDdn3gR790WJfESx1-42" value="n" style="text;html=1;align=center;verticalAlign=middle;resizable=0;points=[];autosize=1;strokeColor=none;fillColor=none;fontSize=16;fontFamily=Segoe UI;fontColor=#1A1A1A;" vertex="1" parent="1">
          <mxGeometry x="-300" y="500" width="30" height="30" as="geometry" />
        </mxCell>
        <mxCell id="hp0mDdn3gR790WJfESx1-43" value="1" style="text;html=1;align=center;verticalAlign=middle;resizable=0;points=[];autosize=1;strokeColor=none;fillColor=none;fontSize=16;fontFamily=Segoe UI;fontColor=#1A1A1A;" vertex="1" parent="1">
          <mxGeometry x="-310" y="610" width="30" height="30" as="geometry" />
        </mxCell>
        <mxCell id="hp0mDdn3gR790WJfESx1-44" value="nằm trong" style="text;html=1;align=center;verticalAlign=middle;resizable=0;points=[];autosize=1;strokeColor=none;fillColor=none;fontSize=16;fontFamily=Segoe UI;fontColor=#1A1A1A;" vertex="1" parent="1">
          <mxGeometry x="-350" y="554.5" width="100" height="30" as="geometry" />
        </mxCell>
        <mxCell id="hp0mDdn3gR790WJfESx1-46" value="&lt;font face=&quot;Segoe UI&quot;&gt;Đồ thêm&lt;br&gt;Topping&lt;br&gt;&lt;/font&gt;" style="rounded=1;whiteSpace=wrap;html=1;fontSize=16;fontColor=#1A1A1A;strokeColor=#FFFFFF;fillColor=#F08E81;" vertex="1" parent="1">
          <mxGeometry x="-105" y="640" width="120" height="60" as="geometry" />
        </mxCell>
        <mxCell id="hp0mDdn3gR790WJfESx1-47" value="" style="endArrow=classic;html=1;rounded=0;fontFamily=Segoe UI;fontSource=https%3A%2F%2Ffonts.googleapis.com%2Fcss%3Ffamily%3DSegoe%2BUI;fontSize=16;fontColor=#1A1A1A;strokeColor=#182E3E;entryX=0;entryY=0.25;entryDx=0;entryDy=0;exitX=1;exitY=0.25;exitDx=0;exitDy=0;" edge="1" parent="1" source="hp0mDdn3gR790WJfESx1-35" target="hp0mDdn3gR790WJfESx1-46">
          <mxGeometry width="50" height="50" relative="1" as="geometry">
            <mxPoint x="-270" y="660.0000000000001" as="sourcePoint" />
            <mxPoint x="-100" y="660.0000000000001" as="targetPoint" />
          </mxGeometry>
        </mxCell>
        <mxCell id="hp0mDdn3gR790WJfESx1-48" value="1" style="text;html=1;align=center;verticalAlign=middle;resizable=0;points=[];autosize=1;strokeColor=none;fillColor=none;fontSize=16;fontFamily=Segoe UI;fontColor=#1A1A1A;" vertex="1" parent="1">
          <mxGeometry x="-280" y="630" width="30" height="30" as="geometry" />
        </mxCell>
        <mxCell id="hp0mDdn3gR790WJfESx1-49" value="n" style="text;html=1;align=center;verticalAlign=middle;resizable=0;points=[];autosize=1;strokeColor=none;fillColor=none;fontSize=16;fontFamily=Segoe UI;fontColor=#1A1A1A;" vertex="1" parent="1">
          <mxGeometry x="-130" y="630" width="30" height="30" as="geometry" />
        </mxCell>
        <mxCell id="hp0mDdn3gR790WJfESx1-50" value="có" style="text;html=1;align=center;verticalAlign=middle;resizable=0;points=[];autosize=1;strokeColor=none;fillColor=none;fontSize=16;fontFamily=Segoe UI;fontColor=#1A1A1A;" vertex="1" parent="1">
          <mxGeometry x="-210" y="630" width="40" height="30" as="geometry" />
        </mxCell>
        <mxCell id="hp0mDdn3gR790WJfESx1-51" value="" style="endArrow=classic;html=1;rounded=0;fontFamily=Segoe UI;fontSource=https%3A%2F%2Ffonts.googleapis.com%2Fcss%3Ffamily%3DSegoe%2BUI;fontSize=16;fontColor=#1A1A1A;strokeColor=#182E3E;entryX=0.999;entryY=0.864;entryDx=0;entryDy=0;entryPerimeter=0;exitX=-0.004;exitY=0.856;exitDx=0;exitDy=0;exitPerimeter=0;" edge="1" parent="1" source="hp0mDdn3gR790WJfESx1-46" target="hp0mDdn3gR790WJfESx1-35">
          <mxGeometry width="50" height="50" relative="1" as="geometry">
            <mxPoint x="-100" y="690.0000000000001" as="sourcePoint" />
            <mxPoint x="-270" y="690.0000000000001" as="targetPoint" />
          </mxGeometry>
        </mxCell>
        <mxCell id="hp0mDdn3gR790WJfESx1-52" value="n" style="text;html=1;align=center;verticalAlign=middle;resizable=0;points=[];autosize=1;strokeColor=none;fillColor=none;fontSize=16;fontFamily=Segoe UI;fontColor=#1A1A1A;" vertex="1" parent="1">
          <mxGeometry x="-280" y="690" width="30" height="30" as="geometry" />
        </mxCell>
        <mxCell id="hp0mDdn3gR790WJfESx1-53" value="1" style="text;html=1;align=center;verticalAlign=middle;resizable=0;points=[];autosize=1;strokeColor=none;fillColor=none;fontSize=16;fontFamily=Segoe UI;fontColor=#1A1A1A;" vertex="1" parent="1">
          <mxGeometry x="-130" y="690" width="30" height="30" as="geometry" />
        </mxCell>
        <mxCell id="hp0mDdn3gR790WJfESx1-54" value="nằm trong" style="text;html=1;align=center;verticalAlign=middle;resizable=0;points=[];autosize=1;strokeColor=none;fillColor=none;fontSize=16;fontFamily=Segoe UI;fontColor=#1A1A1A;" vertex="1" parent="1">
          <mxGeometry x="-240" y="690" width="100" height="30" as="geometry" />
        </mxCell>
        <mxCell id="hp0mDdn3gR790WJfESx1-55" value="&lt;font face=&quot;Segoe UI&quot;&gt;Hóa đơn&lt;br&gt;Receipt&lt;br&gt;&lt;/font&gt;" style="rounded=1;whiteSpace=wrap;html=1;fontSize=16;fontColor=#1A1A1A;strokeColor=#FFFFFF;fillColor=#F08E81;" vertex="1" parent="1">
          <mxGeometry x="-385" y="250" width="120" height="60" as="geometry" />
        </mxCell>
        <mxCell id="hp0mDdn3gR790WJfESx1-56" value="1" style="text;html=1;align=center;verticalAlign=middle;resizable=0;points=[];autosize=1;strokeColor=none;fillColor=none;fontSize=16;fontColor=#1A1A1A;" vertex="1" parent="1">
          <mxGeometry x="-270" y="290" width="30" height="30" as="geometry" />
        </mxCell>
        <mxCell id="hp0mDdn3gR790WJfESx1-57" value="" style="endArrow=classic;html=1;rounded=0;fontColor=#1A1A1A;strokeColor=#182E3E;entryX=1;entryY=0.25;entryDx=0;entryDy=0;exitX=0.375;exitY=0.026;exitDx=0;exitDy=0;exitPerimeter=0;" edge="1" parent="1" source="hp0mDdn3gR790WJfESx1-4" target="hp0mDdn3gR790WJfESx1-55">
          <mxGeometry width="50" height="50" relative="1" as="geometry">
            <mxPoint x="-56" y="450" as="sourcePoint" />
            <mxPoint x="-10" y="265" as="targetPoint" />
            <Array as="points">
              <mxPoint x="-55" y="265" />
            </Array>
          </mxGeometry>
        </mxCell>
        <mxCell id="hp0mDdn3gR790WJfESx1-58" value="&lt;font style=&quot;font-size: 16px;&quot;&gt;có&lt;/font&gt;" style="text;html=1;align=center;verticalAlign=middle;resizable=0;points=[];autosize=1;strokeColor=none;fillColor=none;fontColor=#1A1A1A;" vertex="1" parent="1">
          <mxGeometry x="-175" y="240" width="40" height="30" as="geometry" />
        </mxCell>
        <mxCell id="hp0mDdn3gR790WJfESx1-59" value="&lt;font style=&quot;font-size: 16px;&quot;&gt;n&lt;/font&gt;" style="text;html=1;align=center;verticalAlign=middle;resizable=0;points=[];autosize=1;strokeColor=none;fillColor=none;fontSize=13;fontFamily=Segoe UI;fontColor=#1A1A1A;" vertex="1" parent="1">
          <mxGeometry x="-260" y="240" width="30" height="30" as="geometry" />
        </mxCell>
        <mxCell id="hp0mDdn3gR790WJfESx1-60" value="" style="endArrow=classic;html=1;rounded=0;fontFamily=Segoe UI;fontSource=https%3A%2F%2Ffonts.googleapis.com%2Fcss%3Ffamily%3DSegoe%2BUI;fontSize=16;fontColor=#1A1A1A;strokeColor=#182E3E;exitX=1;exitY=0.75;exitDx=0;exitDy=0;entryX=0.15;entryY=-0.009;entryDx=0;entryDy=0;entryPerimeter=0;" edge="1" parent="1" source="hp0mDdn3gR790WJfESx1-55" target="hp0mDdn3gR790WJfESx1-4">
          <mxGeometry width="50" height="50" relative="1" as="geometry">
            <mxPoint x="-10.11999999999989" y="287.32000000000005" as="sourcePoint" />
            <mxPoint x="-197.07999999999993" y="400.96000000000004" as="targetPoint" />
            <Array as="points">
              <mxPoint x="-80" y="295" />
            </Array>
          </mxGeometry>
        </mxCell>
        <mxCell id="hp0mDdn3gR790WJfESx1-61" value="1" style="text;html=1;align=center;verticalAlign=middle;resizable=0;points=[];autosize=1;strokeColor=none;fillColor=none;fontSize=16;fontFamily=Segoe UI;fontColor=#1A1A1A;" vertex="1" parent="1">
          <mxGeometry x="-60" y="425" width="30" height="30" as="geometry" />
        </mxCell>
        <mxCell id="hp0mDdn3gR790WJfESx1-62" value="1" style="text;html=1;align=center;verticalAlign=middle;resizable=0;points=[];autosize=1;strokeColor=none;fillColor=none;fontSize=16;fontFamily=Segoe UI;fontColor=#1A1A1A;" vertex="1" parent="1">
          <mxGeometry x="-110" y="420" width="30" height="30" as="geometry" />
        </mxCell>
        <mxCell id="hp0mDdn3gR790WJfESx1-63" value="thuộc về" style="text;html=1;align=center;verticalAlign=middle;resizable=0;points=[];autosize=1;strokeColor=none;fillColor=none;fontSize=16;fontFamily=Segoe UI;fontColor=#1A1A1A;" vertex="1" parent="1">
          <mxGeometry x="-175" y="290" width="80" height="30" as="geometry" />
        </mxCell>
        <mxCell id="hp0mDdn3gR790WJfESx1-64" value="&lt;font face=&quot;Segoe UI&quot;&gt;Ảnh&lt;br&gt;Image&lt;/font&gt;" style="rounded=1;whiteSpace=wrap;html=1;fontSize=16;fontColor=#1A1A1A;strokeColor=#FFFFFF;fillColor=#F08E81;" vertex="1" parent="1">
          <mxGeometry x="-390" y="840" width="120" height="60" as="geometry" />
        </mxCell>
        <mxCell id="hp0mDdn3gR790WJfESx1-65" value="" style="endArrow=classic;html=1;rounded=0;fontFamily=Segoe UI;fontSource=https%3A%2F%2Ffonts.googleapis.com%2Fcss%3Ffamily%3DSegoe%2BUI;fontSize=16;fontColor=#1A1A1A;strokeColor=#182E3E;exitX=0.25;exitY=1;exitDx=0;exitDy=0;entryX=0.25;entryY=0;entryDx=0;entryDy=0;" edge="1" parent="1" source="hp0mDdn3gR790WJfESx1-35" target="hp0mDdn3gR790WJfESx1-64">
          <mxGeometry width="50" height="50" relative="1" as="geometry">
            <mxPoint x="-357.5" y="710" as="sourcePoint" />
            <mxPoint x="-357.5" y="840" as="targetPoint" />
          </mxGeometry>
        </mxCell>
        <mxCell id="hp0mDdn3gR790WJfESx1-66" value="1" style="text;html=1;align=center;verticalAlign=middle;resizable=0;points=[];autosize=1;strokeColor=none;fillColor=none;fontSize=16;fontFamily=Segoe UI;fontColor=#1A1A1A;" vertex="1" parent="1">
          <mxGeometry x="-382.5" y="700" width="30" height="30" as="geometry" />
        </mxCell>
        <mxCell id="hp0mDdn3gR790WJfESx1-67" value="n" style="text;html=1;align=center;verticalAlign=middle;resizable=0;points=[];autosize=1;strokeColor=none;fillColor=none;fontSize=16;fontFamily=Segoe UI;fontColor=#1A1A1A;" vertex="1" parent="1">
          <mxGeometry x="-385" y="810" width="30" height="30" as="geometry" />
        </mxCell>
        <mxCell id="hp0mDdn3gR790WJfESx1-68" value="có" style="text;html=1;align=center;verticalAlign=middle;resizable=0;points=[];autosize=1;strokeColor=none;fillColor=none;fontSize=16;fontFamily=Segoe UI;fontColor=#1A1A1A;" vertex="1" parent="1">
          <mxGeometry x="-392.5" y="754.5" width="40" height="30" as="geometry" />
        </mxCell>
        <mxCell id="hp0mDdn3gR790WJfESx1-69" value="" style="endArrow=classic;html=1;rounded=0;fontFamily=Segoe UI;fontSource=https%3A%2F%2Ffonts.googleapis.com%2Fcss%3Ffamily%3DSegoe%2BUI;fontSize=16;fontColor=#1A1A1A;strokeColor=#182E3E;entryX=0.75;entryY=1;entryDx=0;entryDy=0;exitX=0.75;exitY=0;exitDx=0;exitDy=0;" edge="1" parent="1" source="hp0mDdn3gR790WJfESx1-64" target="hp0mDdn3gR790WJfESx1-35">
          <mxGeometry width="50" height="50" relative="1" as="geometry">
            <mxPoint x="-300" y="840" as="sourcePoint" />
            <mxPoint x="-297.5" y="710" as="targetPoint" />
          </mxGeometry>
        </mxCell>
        <mxCell id="hp0mDdn3gR790WJfESx1-70" value="n" style="text;html=1;align=center;verticalAlign=middle;resizable=0;points=[];autosize=1;strokeColor=none;fillColor=none;fontSize=16;fontFamily=Segoe UI;fontColor=#1A1A1A;" vertex="1" parent="1">
          <mxGeometry x="-310" y="700" width="30" height="30" as="geometry" />
        </mxCell>
        <mxCell id="hp0mDdn3gR790WJfESx1-71" value="1" style="text;html=1;align=center;verticalAlign=middle;resizable=0;points=[];autosize=1;strokeColor=none;fillColor=none;fontSize=16;fontFamily=Segoe UI;fontColor=#1A1A1A;" vertex="1" parent="1">
          <mxGeometry x="-310" y="810" width="30" height="30" as="geometry" />
        </mxCell>
        <mxCell id="hp0mDdn3gR790WJfESx1-72" value="thuộc về" style="text;html=1;align=center;verticalAlign=middle;resizable=0;points=[];autosize=1;strokeColor=none;fillColor=none;fontSize=16;fontFamily=Segoe UI;fontColor=#1A1A1A;" vertex="1" parent="1">
          <mxGeometry x="-340" y="755" width="80" height="30" as="geometry" />
        </mxCell>
        <mxCell id="hp0mDdn3gR790WJfESx1-73" value="&lt;font face=&quot;Segoe UI&quot;&gt;Quản trị&lt;br&gt;Admin&lt;br&gt;&lt;/font&gt;" style="rounded=1;whiteSpace=wrap;html=1;fontSize=16;fontColor=#1A1A1A;strokeColor=#FFFFFF;fillColor=#F08E81;" vertex="1" parent="1">
          <mxGeometry x="250" y="755" width="120" height="60" as="geometry" />
        </mxCell>
        <mxCell id="hp0mDdn3gR790WJfESx1-74" value="&lt;font face=&quot;Segoe UI&quot;&gt;Bài đăng&lt;br&gt;Post&lt;br&gt;&lt;/font&gt;" style="rounded=1;whiteSpace=wrap;html=1;fontSize=16;fontColor=#1A1A1A;strokeColor=#FFFFFF;fillColor=#F08E81;" vertex="1" parent="1">
          <mxGeometry x="60" y="860" width="120" height="60" as="geometry" />
        </mxCell>
        <mxCell id="hp0mDdn3gR790WJfESx1-75" value="&lt;font face=&quot;Segoe UI&quot;&gt;Thẻ&lt;br&gt;Tag&lt;br&gt;&lt;/font&gt;" style="rounded=1;whiteSpace=wrap;html=1;fontSize=16;fontColor=#1A1A1A;strokeColor=#FFFFFF;fillColor=#F08E81;" vertex="1" parent="1">
          <mxGeometry x="260" y="910" width="120" height="60" as="geometry" />
        </mxCell>
      </root>
    </mxGraphModel>
  </diagram>
</mxfile>
